# xmcd
#
# Track frame offsets:
#	150
#	22349
#	46419
#	79858
#	100494
#	117409
#
# Disc length: 2117 seconds
# Revision: 0
# Processed by: cddbd v1.4PL0 Copyright (c) Steve Scherf et al.
# Submitted via: cdrLabel 6.0
#
DISCID=4f084306
DTITLE=Rush - Permanent Waves
DYEAR=1980
DGENRE=Rock
TTITLE0=The Spirit Of Radio
TTITLE1=Freewill
TTITLE2=Jacob's Ladder
TTITLE3=Entre Nous
TTITLE4=Different Strings
TTITLE5=Natural Science
EXTD=submitted by tony
EXTT0=
EXTT1=
EXTT2=
EXTT3=
EXTT4=
EXTT5=
PLAYORDER=
